<svg height="250" viewBox="0 0 500 250" width="500" xmlns="http://www.w3.org/2000/svg"><path d="m340.08817 14.20703a102.16913 82.806202 0 0 0 -102.16883 82.805547 102.16913 82.806202 0 0 0  .114 2.594095c-4.12812-.658689-8.33757-1.007725-12.60411-1.012655-45.07766.000287-81.62029 37.073403-81.62065 82.805543-.0007 45.73289 36.54225 82.80719 81.62065 82.80747h332.19266c47.60043-.00033 86.18773-33.14647 86.18669-74.03365-.0002-39.1511-35.38889-71.18325-80.18464-73.8338a90.589114 65.09984 0 0 0 -89.92271-57.894522 90.589114 65.09984 0 0 0 -39.48831 6.567872 102.16913 82.806202 0 0 0 -94.12475-50.8059z" fill="#c2c2c2" fill-rule="evenodd" transform="translate(-143.80859 -14.207028)"/></svg>
